# xmcd
#
# Track frame offsets: 
#        150
#        14212
#        33750
#        45150
#        63975
#        77025
#        87262
#        100837
#        119512
#        136012
#        151537
#        164362
#        178912
#
# Disc length: 2546 seconds
#
# Revision: 0
# Processed by: cddbd v1.5.2PL0 Copyright (c) Steve Scherf et al.
# Submitted via: ExactAudioCopy v0.99pb5
#
DISCID=9809f00d
DTITLE=Dany Paisley and the Southern Grass - The Room Over Mine
DYEAR=2008
DGENRE=Bluegrass
TTITLE0=Don't Throw Mama's Flowers Away
TTITLE1=The Convict and the Rose
TTITLE2=I'm Leaving Detroit
TTITLE3=I thought I Heard You Calling My Name
TTITLE4=A Memory of You
TTITLE5=Sweet Potato Rag
TTITLE6=I'm Comin' Back but I Don't Know When
TTITLE7=Another Bridge to Burn
TTITLE8=Raisin' Cane in Texas
TTITLE9=The Room Over Mine
TTITLE10=Backstep Sally Ann
TTITLE11=At the End of a Long Lonely Day
TTITLE12=Drowning Sailor
EXTD=
EXTT0=
EXTT1=
EXTT2=
EXTT3=
EXTT4=
EXTT5=
EXTT6=
EXTT7=
EXTT8=
EXTT9=
EXTT10=
EXTT11=
EXTT12=
PLAYORDER=
